<svg width="45" height="51" viewBox="0 0 45 51" fill="none" xmlns="http://www.w3.org/2000/svg">
<path d="M31.1914 28.375C28.3594 28.375 27.0898 29.9375 22.5 29.9375C17.8125 29.9375 16.543 28.375 13.7109 28.375C6.48438 28.375 0.625 34.332 0.625 41.5586V45.5625C0.625 48.1992 2.67578 50.25 5.3125 50.25H39.6875C42.2266 50.25 44.375 48.1992 44.375 45.5625V41.5586C44.375 34.332 38.418 28.375 31.1914 28.375ZM41.25 45.5625C41.25 46.4414 40.4688 47.125 39.6875 47.125H5.3125C4.43359 47.125 3.75 46.4414 3.75 45.5625V41.5586C3.75 35.9922 8.14453 31.5 13.7109 31.5C15.6641 31.5 17.5195 33.0625 22.5 33.0625C27.3828 33.0625 29.3359 31.5 31.1914 31.5C36.7578 31.5 41.25 35.9922 41.25 41.5586V45.5625ZM22.5 25.25C29.3359 25.25 35 19.6836 35 12.75C35 5.91406 29.3359 0.25 22.5 0.25C15.5664 0.25 10 5.91406 10 12.75C10 19.6836 15.5664 25.25 22.5 25.25ZM22.5 3.375C27.5781 3.375 31.875 7.67188 31.875 12.75C31.875 17.9258 27.5781 22.125 22.5 22.125C17.3242 22.125 13.125 17.9258 13.125 12.75C13.125 7.67188 17.3242 3.375 22.5 3.375Z" fill="#FFFBF5"/>
</svg>
